<svg width="29" height="30" fill="none" xmlns="http://www.w3.org/2000/svg"><path d="M14.167 30c7.824 0 14.166-6.343 14.166-14.167S21.991 1.667 14.167 1.667C6.343 1.667 0 8.009 0 15.833 0 23.657 6.343 30 14.167 30Z" fill="#F4900C"/><path d="M14.167 28.333c7.824 0 14.166-6.342 14.166-14.166C28.333 6.343 21.991 0 14.167 0 6.343 0 0 6.343 0 14.167s6.343 14.166 14.167 14.166Z" fill="#FFCC4D"/><path d="M14.167 26.667c6.443 0 11.666-5.224 11.666-11.667S20.61 3.333 14.167 3.333C7.723 3.333 2.5 8.557 2.5 15s5.223 11.667 11.667 11.667Z" fill="#FFE8B6"/><path d="M14.167 25.833c6.443 0 11.666-5.223 11.666-11.666C25.833 7.723 20.61 2.5 14.167 2.5 7.723 2.5 2.5 7.723 2.5 14.167c0 6.443 5.223 11.666 11.667 11.666Z" fill="#FFAC33"/><path d="M7.12 9.047c0-.454.445-.636.445-.636l6.565-3.083 6.627 3.083s.457.102.457.639v.534H7.12v-.537Z" fill="#FFE8B6"/><path d="M20.774 10.697c0-.487-.42-.881-.94-.881H8.442a.86.86 0 0 0-.881.88c0 .332.17.617.44.767v.555h1.762v-.44h1.762v.44h1.762v-.44h1.761v.44h1.762v-.44h1.762v.44h1.762v-.577a.87.87 0 0 0 .441-.744ZM22.094 20a.66.66 0 0 1-.66.66H6.9a.66.66 0 1 1 0-1.32h14.536a.66.66 0 0 1 .66.66Z" fill="#F4900C"/><path d="M21.214 10.167a.441.441 0 0 1-.44.44H7.558a.442.442 0 0 1 0-.881l13.214.002a.439.439 0 0 1 .441.439Zm-11.892.511h9.69v.989h-9.69v-.989Z" fill="#F4900C"/><path d="M9.762 17.358c0 .486-.264.88-.588.88h-.587c-.325 0-.588-.394-.588-.88v-6.679c0-.486.263-.88.588-.88h.587c.324 0 .588.394.588.88v6.679Zm10.571 0c0 .486-.262.88-.587.88h-.588c-.324 0-.587-.394-.587-.88v-6.679c0-.486.262-.88.587-.88h.588c.324 0 .587.394.587.88v6.679Zm-7.047 0c0 .486-.264.88-.588.88h-.587c-.325 0-.588-.394-.588-.88v-6.679c0-.486.264-.88.588-.88h.587c.324 0 .588.394.588.88v6.679Zm3.523 0c0 .486-.263.88-.588.88h-.586c-.324 0-.588-.394-.588-.88v-6.679c0-.486.264-.88.588-.88h.586c.325 0 .588.394.588.88v6.679Z" fill="#FFD983"/><path d="M20.775 17.797a.88.88 0 0 1-.881.881H8.44a.88.88 0 1 1 0-1.761h11.453a.88.88 0 0 1 .88.88Z" fill="#FFCC4D"/><path d="M21.655 18.678a.88.88 0 0 1-.88.881H7.56a.881.881 0 0 1 0-1.762h13.214c.486 0 .881.395.881.881Z" fill="#FFD983"/><path d="M22.095 19.34a.661.661 0 0 1-.66.66H6.898a.661.661 0 0 1 0-1.322h14.536a.66.66 0 0 1 .66.661Z" fill="#FFD983"/><path d="M20.775 10.238c0-.486-.421-.88-.94-.88H8.441a.86.86 0 0 0-.88.88c0 .331.17.616.44.767v.555h1.762v-.44h1.762v.44h1.761v-.44h1.762v.44h1.762v-.44h1.761v.44h1.763v-.578a.87.87 0 0 0 .44-.744Z" fill="#FFCC4D"/><path d="M7.12 9.553c0-.455.445-.636.445-.636l6.565-3.084 6.627 3.084s.457.101.457.639v.242H7.12v-.245Z" fill="#FFD983"/><path d="M14.168 6.953s-4.546 2.142-5 2.335c-.454.193-.302.51.001.51h9.975c.469 0 .358-.358-.014-.551-.372-.193-4.962-2.294-4.962-2.294Z" fill="#FFAC33"/><path d="M21.214 9.798a.44.44 0 0 1-.44.44H7.558a.442.442 0 0 1 0-.881l13.214.002a.439.439 0 0 1 .441.439Z" fill="#FFD983"/></svg>