<svg width="21" height="18" fill="none" xmlns="http://www.w3.org/2000/svg"><path fill-rule="evenodd" clip-rule="evenodd" d="M5.135 0c-.574 0-1.11.272-1.43.725L.183 5.734a.981.981 0 0 0-.068 1.029 30.976 30.976 0 0 0 7.882 9.566l1.719 1.396a1.258 1.258 0 0 0 1.57 0l1.72-1.396c3.273-2.66 5.952-5.912 7.88-9.566a.981.981 0 0 0-.067-1.03L17.294.726A1.745 1.745 0 0 0 15.864 0H5.136Zm-.204 1.5a.25.25 0 0 1 .204-.105h2.297l-1.88 4.277c-.043.098-.076.2-.098.303a71.682 71.682 0 0 1-2.07-.176l-1.38-.138L4.93 1.499ZM1.938 7.057a29.61 29.61 0 0 0 6.867 8.089L5.736 7.393a73.208 73.208 0 0 1-2.507-.207l-1.29-.128Zm5.406.422 3.156 7.976 3.156-7.976c-2.103.09-4.21.09-6.312 0Zm7.92-.087-3.069 7.754a29.609 29.609 0 0 0 6.867-8.09l-1.291.13c-.835.083-1.67.151-2.507.206Zm3.733-1.732-1.38.138c-.69.068-1.38.127-2.071.176a1.564 1.564 0 0 0-.098-.303l-1.88-4.277h2.297a.25.25 0 0 1 .204.104l2.928 4.162Zm-4.971.405c-2.35.115-4.703.115-7.052 0l2.053-4.67h2.946l2.053 4.67Z" fill="#4E0073"/></svg>