<svg width="30" height="30" fill="none" xmlns="http://www.w3.org/2000/svg"><path d="M13.4 26.15a12.188 12.188 0 1 1 12.187-12.187A12.213 12.213 0 0 1 13.4 26.15Zm0-22.5a10.312 10.312 0 1 0 10.35 10.313A10.324 10.324 0 0 0 13.4 3.65Z" fill="#000"/><path d="M16.6 28.225A12.212 12.212 0 0 1 8.287 25a.95.95 0 0 1 0-1.325.937.937 0 0 1 1.325-.063A10.313 10.313 0 1 0 20.7 6.576a.925.925 0 0 1-.488-1.25.937.937 0 0 1 1.25-.487 12.188 12.188 0 0 1-4.85 23.362l-.012.025Z" fill="#000"/><path d="M9.65 20.675a.937.937 0 0 1-.9-1.1l.638-3.688L6.7 13.262a.925.925 0 0 1-.237-.962.938.938 0 0 1 .75-.638l3.75-.537 1.662-3.362a.987.987 0 0 1 1.688 0l1.6 3.362 3.75.537a.938.938 0 0 1 .75.638.926.926 0 0 1-.238.962L17.5 15.887l.638 3.688a.95.95 0 0 1-.375.925.938.938 0 0 1-.988.063l-3.325-1.738-3.362 1.738a.912.912 0 0 1-.438.112Zm3.75-3.85a.91.91 0 0 1 .438.113l2.075 1.087-.388-2.312a.948.948 0 0 1 .263-.825L17.5 13.25l-2.325-.338a.975.975 0 0 1-.712-.512l-1.038-2.113-1.05 2.113a.95.95 0 0 1-.712.512l-2.325.338 1.687 1.637a.926.926 0 0 1 .263.825l-.388 2.313 2.075-1.087a.837.837 0 0 1 .425-.113Z" fill="#000"/></svg>