<svg width="30" height="30" fill="none" xmlns="http://www.w3.org/2000/svg"><path d="M15 6.667 9.167 0H0l11.667 14.167 9.6-3.959L15 6.667Z" fill="#55ACEE"/><path d="M20.833 0 15 6.667l4.492 6.093 1.022-1.24L30 0h-9.167Z" fill="#3B88C3"/><path d="M19.337 13.355c.067-.18.11-.373.11-.578a1.667 1.667 0 0 0-1.667-1.666h-5.556a1.667 1.667 0 0 0-1.667 1.666c0 .205.042.397.11.578a8.883 8.883 0 0 0-4.554 7.756 8.89 8.89 0 0 0 17.778 0 8.884 8.884 0 0 0-4.554-7.756Z" fill="#FFAC33"/><path d="M16.17 15.5h-1.434l-2.275 1.777a.44.44 0 0 0-.093.233v.982c0 .155.125.295.28.295h1.496v7.011c0 .157.125.296.296.296h1.73c.155 0 .28-.14.28-.296V15.795c0-.155-.124-.295-.28-.295Z" fill="#9E5200"/></svg>