<svg width="30" height="30" fill="none" xmlns="http://www.w3.org/2000/svg"><path d="M14.375 16.563a7.187 7.187 0 1 1 7.188-7.188 7.2 7.2 0 0 1-7.188 7.188Zm0-12.5a5.313 5.313 0 1 0 5.313 5.312 5.325 5.325 0 0 0-5.313-5.313Z" fill="#000"/><path d="M3.125 26.563a.95.95 0 0 1-.938-.938 10.963 10.963 0 0 1 10.938-10.938h2.5a.938.938 0 0 1 0 1.876h-2.5a9.075 9.075 0 0 0-9.063 9.062.95.95 0 0 1-.937.938Zm15 1.25a.938.938 0 0 1-.625-.313l-5-5a.938.938 0 0 1 1.25-1.25l4.288 4.288 8.137-9.288a.939.939 0 0 1 1.4 1.25l-8.75 10a.913.913 0 0 1-.662.325l-.038-.012Z" fill="#000"/></svg>