<svg width="30" height="30" fill="none" xmlns="http://www.w3.org/2000/svg"><path d="M20.513 22.675a.974.974 0 0 1-.8-.438.95.95 0 0 1 .287-1.25 9.238 9.238 0 1 0-10 0A.937.937 0 0 1 8.988 22.5a11.112 11.112 0 1 1 12.025 0 .937.937 0 0 1-.5.175Z" fill="#000"/><path d="M20.513 27.962H9.488a.938.938 0 0 1-.938-.937v-5.287a.937.937 0 1 1 1.875 0v4.35h9.15v-4.35a.937.937 0 1 1 1.875 0v5.287a.938.938 0 0 1-.937.938Zm-9.063-9.774a.938.938 0 0 1-.937-.938v-4.5a.938.938 0 0 1 1.875 0v4.5a.95.95 0 0 1-.938.938Zm6.75 0a.95.95 0 0 1-.937-.938v-4.5a.938.938 0 0 1 1.875 0v4.5a.938.938 0 0 1-.938.938Z" fill="#000"/><path d="M13.225 27.988a.95.95 0 0 1-.937-.938v-2.663a.938.938 0 0 1 1.875 0v2.663a.937.937 0 0 1-.938.938Zm3.55 0a.937.937 0 0 1-.937-.938v-2.663a.938.938 0 0 1 1.875 0v2.663a.95.95 0 0 1-.938.938Z" fill="#000"/></svg>