<svg width="21" height="16" fill="none" xmlns="http://www.w3.org/2000/svg"><path d="M10.5 0C9.266 0 8.25.903 8.25 2c0 .75.475 1.409 1.172 1.75L7.218 7.667 3.772 5.479c.23-.188.414-.416.54-.671.125-.255.189-.53.188-.808 0-1.097-1.016-2-2.25-2S0 2.903 0 4c0 .899.695 1.646 1.617 1.896L3 12.666V16h15v-3.333l1.383-6.771C20.305 5.646 21 4.899 21 4c0-1.097-1.016-2-2.25-2s-2.25.903-2.25 2c0 .58.275 1.112.727 1.48L13.78 7.666 11.578 3.75c.353-.172.649-.425.855-.733.206-.307.316-.659.317-1.017 0-1.097-1.016-2-2.25-2Zm0 1.333c.422 0 .75.292.75.667 0 .375-.329.667-.75.667-.422 0-.75-.292-.75-.667 0-.375.329-.667.75-.667Zm-8.25 2c.422 0 .75.292.75.667 0 .375-.329.667-.75.667-.422 0-.75-.292-.75-.667 0-.375.329-.667.75-.667Zm16.5 0c.422 0 .75.292.75.667 0 .375-.328.667-.75.667S18 4.375 18 4c0-.375.328-.667.75-.667Zm-8.25 1.5 2.32 4.126 1.125.25 3.75-2.376L16.64 12H4.36L3.305 6.833l3.75 2.376 1.125-.25 2.32-4.126Zm-6 8.5h12v1.334h-12v-1.334Z" fill="#4E0073"/></svg>