<svg width="30" height="30" fill="none" xmlns="http://www.w3.org/2000/svg"><path d="M15 6.667 9.167 0H0l11.667 14.167 9.6-3.959L15 6.667Z" fill="#55ACEE"/><path d="M20.833 0 15 6.667l4.492 6.093 1.022-1.24L30 0h-9.167Z" fill="#3B88C3"/><path d="M19.337 13.355c.067-.18.11-.373.11-.578a1.667 1.667 0 0 0-1.667-1.666h-5.556a1.667 1.667 0 0 0-1.667 1.666c0 .205.042.397.11.578a8.883 8.883 0 0 0-4.554 7.756 8.89 8.89 0 0 0 17.778 0 8.884 8.884 0 0 0-4.554-7.756Z" fill="#FF8A3B"/><path d="m11.767 24.458.982-.981a.288.288 0 0 1 .39-.032s.965.718 1.712.718c.671 0 1.357-.561 1.357-1.247s-.702-1.262-1.854-1.262h-.533a.306.306 0 0 1-.295-.296v-1.293c0-.172.14-.296.295-.296h.533c1.09 0 1.667-.529 1.667-1.199s-.576-1.168-1.247-1.168c-.686 0-1.122.358-1.355.622-.11.125-.296.125-.42.017l-.95-.935c-.127-.11-.11-.296 0-.405 0 0 1.277-1.372 2.974-1.372 1.808 0 3.366 1.107 3.366 2.852 0 1.2-.904 2.087-1.605 2.414v.048c.732.311 1.885 1.277 1.885 2.617 0 1.698-1.48 2.977-3.63 2.977-1.963 0-2.96-.967-3.288-1.387-.094-.112-.077-.283.016-.392Z" fill="#7C4119"/></svg>